<svg xmlns="http://www.w3.org/2000/svg" viewBox="0 0 1920 1080"><path d="M712.38 374.86c-1.3 4.77-1.95 8.93-1.95 12.46 0 1.83-.18 4.66-.54 8.49-.36 3.83-.54 6.65-.54 8.48 0 6.21-.33 15.43-.98 27.66-.65 12.23-.98 21.45-.98 27.66 0 4.77.36 11.9 1.07 21.38.72 9.48 1.07 16.61 1.07 21.38 0 3.6-1.27 6.64-3.81 9.12-2.54 2.48-5.7 3.73-9.47 3.73-3.84 0-7.16-1.22-9.96-3.66-2.8-2.44-4.2-5.42-4.2-8.94 0-4.75-.21-11.88-.63-21.39-.42-9.5-.63-16.63-.63-21.39 0-3.71.06-7 .2-9.86-10.22.46-22.85 2.05-37.89 4.79-12.5 2.28-25 4.59-37.5 6.93-.13 4.13-.59 11.03-1.37 20.7-.65 8.51-.98 15.47-.98 20.88 0 3.34-1.27 6.17-3.81 8.48-2.54 2.31-5.7 3.46-9.47 3.46-3.78 0-6.93-1.21-9.47-3.62-2.54-2.41-3.81-5.37-3.81-8.87 0-6.42.57-16.01 1.71-28.79 1.14-12.77 1.71-22.37 1.71-28.79 0-8.13.2-20.38.59-36.75.39-16.37.59-28.61.59-36.75 0-3.49 1.27-6.45 3.81-8.87 2.54-2.41 5.7-3.62 9.47-3.62 3.77 0 6.93 1.24 9.47 3.71 2.54 2.48 3.81 5.5 3.81 9.08 0 4.95-.18 12.39-.54 22.31-.36 9.93-.54 17.37-.54 22.31 0 1.63-.23 4.75-.68 9.38-.39 4.3-.55 7.58-.49 9.86l37.5-7.03c14.65-2.6 27.28-4.1 37.89-4.49.26-4.41.68-16.25 1.27-35.53.13-5.07 1.66-10.89 4.59-17.47 3.65-8.09 7.78-12.14 12.4-12.14 3.45 0 6.51 1.14 9.18 3.43 2.86 2.49 4.3 5.59 4.3 9.32 0 1-.13 1.98-.39 2.96zM796.17 516.88c-19.27 0-35.68-5.53-49.22-16.6-14.45-11.85-21.68-27.18-21.68-46 0-22.13 6.93-42.32 20.8-60.55 15.56-20.51 35.16-30.76 58.79-30.76 22.72 0 39.75 5.21 51.07 15.63 11.33 10.42 16.99 26.07 16.99 46.97 0 22.14-6.38 42.19-19.14 60.16-14.71 20.77-33.91 31.15-57.61 31.15zm8.69-127.44c-14.52 0-26.95 7.03-37.3 21.09-9.7 13.15-14.55 27.73-14.55 43.75 0 10.81 4.2 19.6 12.6 26.37 8.07 6.51 18.26 9.77 30.57 9.77 14.32 0 26.27-7.03 35.84-21.09 8.79-12.83 13.18-27.41 13.18-43.75 0-13.67-3.06-23.18-9.18-28.52-5.87-5.08-16.25-7.62-31.16-7.62zM1033.47 486.9c0 3.26-.55 8.4-1.66 15.43-1.3 8.4-6.05 12.6-14.26 12.6-4.56 0-9.7-2.57-15.43-7.71-25.07-22.59-53.35-54.26-84.86-95.02-.39 16.93-.59 27.31-.59 31.15 0 5.14.11 12.89.34 23.24.23 10.35.34 18.1.34 23.24 0 19.21-4.69 28.81-14.06 28.81-4.75 0-8.56-1.46-11.43-4.39-2.54-2.6-3.81-5.76-3.81-9.47 0-2.6.21-6.54.63-11.82.42-5.27.63-9.21.63-11.82 0-3.84.13-9.6.39-17.29.26-7.68.39-13.44.39-17.29 0-4.1-.1-10.29-.29-18.55-.2-8.27-.29-14.45-.29-18.55 0-3.91-.39-9.73-1.17-17.48-.78-7.75-1.17-13.57-1.17-17.48s1.68-7.39 5.03-10.45c3.35-3.06 7.18-4.59 11.47-4.59 4.82 0 10.16 4.17 16.02 12.5 29.56 42.19 58.72 76.6 87.5 103.22.06-2.08.1-7.03.1-14.84 0-32.1-.33-53.74-.98-64.94-.13-1.89-.55-5.4-1.27-10.55-.65-4.56-.98-8.14-.98-10.74 0-8.98 4.75-13.48 14.26-13.48 10.61 0 15.92 16.37 15.92 49.12 0 .72-.07 5.86-.2 15.43-.37 33.08-.57 53.65-.57 61.72zM1172.05 453.51c-4.43 19.4-13.35 34.93-26.76 46.58-13.61 11.72-29.56 17.58-47.85 17.58-17.32 0-30.31-4.57-38.96-13.72-8.66-9.15-12.99-22.87-12.99-41.16 0-16.67 4.1-33.76 12.3-51.27 8.2-17.51 18.75-31.7 31.64-42.58 9.05-7.62 18.75-11.43 29.1-11.43 6.31 0 14.91 2.28 25.78 6.84 12.89 5.4 19.34 11.17 19.34 17.29 0 3.52-1.33 6.66-4 9.42-2.67 2.77-5.96 4.15-9.86 4.15-1.95 0-6.27-1.84-12.94-5.52-6.67-3.68-12.78-5.52-18.31-5.52-5.86 0-13.77 6.32-23.73 18.95-14.52 18.36-21.78 38.25-21.78 59.67 0 10.87 1.59 18.26 4.79 22.17 3.38 4.1 9.93 6.15 19.63 6.15 9.96 0 18.72-2.83 26.27-8.5 8.01-5.99 13.93-14.71 17.77-26.17-15.1 1.17-28.26 4.26-39.45 9.28-2.02.91-4.04 1.37-6.05 1.37-4.04 0-7.39-1.5-10.06-4.49-2.41-2.67-3.61-5.7-3.61-9.08 0-9.96 11.78-16.93 35.35-20.9 13.28-2.21 28.78-3.32 46.48-3.32 3.91 0 7.18 1.27 9.81 3.81s3.96 5.66 3.96 9.38c-.01 4.73-1.96 8.41-5.87 11.02zM717.51 638.86c-1.5 0-3.16-.29-4.98-.88-8.4-2.73-18.65-4.1-30.76-4.1-3.97 0-8.54.26-13.72.78-5.18.52-10.92 1.3-17.24 2.34.13 12.5.13 23.24 0 32.23 9.9-2.41 18.1-3.61 24.61-3.61 12.11 0 22.66.55 31.64 1.66 8.4 1.04 12.6 5.47 12.6 13.28 0 3.78-1.33 6.93-4 9.47-2.67 2.54-5.92 3.81-9.77 3.81-3.39 0-8.46-.26-15.23-.78s-11.85-.78-15.23-.78c-4.75 0-12.96 1.5-24.61 4.49V758c0 3.78-1.48 6.93-4.44 9.47-2.96 2.54-6.36 3.81-10.21 3.81-3.78 0-6.84-1.25-9.18-3.76s-3.52-5.68-3.52-9.52V646.08c0-2.54.05-6.38.15-11.52.1-5.14.15-8.98.15-11.52 0-3.84 1.28-7.03 3.86-9.57 2.57-2.54 5.81-3.81 9.72-3.81 2.47 0 4.65.49 6.54 1.46 7.55-1.3 14.49-2.26 20.8-2.88 6.31-.62 12.01-.93 17.09-.93 7.42 0 16.76 1.53 28.03 4.59 14.13 3.84 21.19 8.3 21.19 13.38 0 3.71-1.32 6.9-3.96 9.57-2.65 2.67-5.82 4.01-9.53 4.01zM848.46 744.03c-4.75 6.45-10.48 11.82-17.19 16.11-8.2 5.21-16.64 7.81-25.29 7.81-16.6 0-28.94-3.13-37.01-9.4-17.06-13.24-25.59-36.23-25.59-68.98 0-3.13.16-7.8.49-14.01.33-6.2.49-10.87.49-14.01 0-2.49.06-6.22.2-11.18.13-4.96.2-8.68.2-11.18 0-5.11.94-9.94 2.83-14.49 2.54-6.01 6.09-9.02 10.64-9.02 3.58 0 6.74 1.15 9.47 3.44 2.99 2.42 4.49 5.54 4.49 9.37 0 3.63-.05 9.13-.15 16.49s-.15 12.89-.15 16.58c0 3.06-.16 7.68-.49 13.86-.33 6.18-.49 10.8-.49 13.86 0 9.88 1.17 19.05 3.52 27.53 2.73 10.13 6.74 17.21 12.01 21.22 2.73 2.1 9.24 3.22 19.53 3.34 17.19.26 28.77-14.39 34.77-43.95 3.13-15.3 4.69-36.78 4.69-64.45 0-3.65 1.07-7.16 3.22-10.55 2.93-4.49 7.1-6.74 12.5-6.74 4.43 0 7.75 1.63 9.96 4.88 1.69 2.41 2.54 5.08 2.54 8.01 0 25.72-1.21 45.77-3.61 60.16-3.64 22.23-10.83 40.65-21.58 55.3zM990.95 656.92c-5.86 0-10.19-3.09-12.99-9.28-1.3-2.93-2.6-4.69-3.91-5.27-.98-.46-3.55-.68-7.71-.68-8.2 0-17.68 6.38-28.42 19.14-15.04 17.84-22.56 34.54-22.56 50.1 0 7.1 2.38 13.18 7.13 18.26 4.75 5.08 10.45 7.62 17.09 7.62 6.45 0 12.99-1.69 19.63-5.08 2.34-1.24 7.29-4.43 14.84-9.57 5.08-3.38 8.92-5.08 11.52-5.08 3.91 0 7.23 1.43 9.96 4.3 2.54 2.67 3.81 5.73 3.81 9.18 0 3.84-1.69 7.19-5.08 10.06-17.9 15.1-36.13 22.66-54.69 22.66-14.65 0-27.02-5.34-37.11-16.02-9.64-10.29-14.45-22.4-14.45-36.33 0-21.81 9.54-44.08 28.61-66.8 16.21-19.27 32.78-28.91 49.71-28.91 2.86 0 5.45.1 7.76.29 2.31.2 4.35.49 6.1.88 2.86-2.8 6.31-4.2 10.35-4.2 6.64 0 10.74 3.81 12.3 11.43 1.11 5.47 1.66 11.85 1.66 19.14 0 3.26-.94 6.22-2.83 8.89-2.46 3.52-6.04 5.27-10.72 5.27zM1045.44 717.67l-.1 41.11c0 2.86-.81 5.5-2.44 7.91-2.28 3.32-5.6 4.98-9.96 4.98-5.14 0-9.18-2.08-12.11-6.25-2.28-3.26-3.42-6.74-3.42-10.45 0-14.45.46-36.17 1.37-65.14.91-28.97 1.37-50.68 1.37-65.14 0-3.65 1.3-6.77 3.91-9.38 2.6-2.6 5.86-3.91 9.77-3.91s7.14 1.3 9.72 3.91c2.57 2.6 3.86 5.73 3.86 9.38 0 5.86-.29 13.77-.88 23.73-.72 11.59-1.14 19.5-1.27 23.73 4.56-4.3 21.45-22.4 50.68-54.3 2.99-3.25 6.45-4.88 10.35-4.88 3.71 0 6.95 1.3 9.72 3.91 2.77 2.6 4.15 5.76 4.15 9.47 0 4.04-7.75 14.52-23.24 31.45-11.46 12.44-23.54 24.71-36.23 36.82 7.1 6.71 14.22 13.41 21.39 20.12 8.33 7.68 15.82 14 22.46 18.95 3.32 2.41 6.9 4.23 10.74 5.47 6.97 2.21 10.45 6.48 10.45 12.79 0 2.8-.88 5.5-2.64 8.11-2.41 3.52-5.76 5.27-10.06 5.27-9.31 0-21.39-6.09-36.23-18.26-4.44-3.65-14.89-13.45-31.36-29.4z"/><path fill="none" stroke="#fc0000" stroke-width="40" stroke-linecap="round" stroke-linejoin="round" stroke-miterlimit="10" d="M590.5 501.5L594 368l30 82 72-13-3 65 9-134 61 27-27 67 27 38 59 2 33-39 4-62-31-24-47 2 118-8-3 136 32.39-122.84L1013 526l5-155 94-70 38 81-65.65-8.49L1066 437l-7 62 76 2 43-64-95.22 21.62L677 563l36 60h-81l1 140 24-81 44 1 56-55 2.99 121.72L836 750l37-148 116 24 2 31-45-15-32.12 9.68L898 733l48 19 43-21 45 41V593l18 95 87-81-88 106 48 33 27 14"/></svg>